<?xml version="1.0" encoding="utf-8"?>
<svg viewBox="0 0 240 240" xmlns="http://www.w3.org/2000/svg">
  <path style="stroke: none; fill-rule: nonzero; fill-opacity: 1; fill: rgb(255, 255, 255);" d="M 126.519 69.277 C 126.519 69.277 110.011 68.177 81.906 76.972 C 53.256 85.936 37.014 98.64 37.014 98.64 C 37.014 98.64 79.705 74.803 127.897 73.451 Z M 188.082 95.196 L 190.233 95.054 C 190.233 95.054 177.939 80.143 154.406 72.874 C 167.63 78.25 179.146 85.375 188.082 95.196 Z M 191.597 101.395 C 191.925 100.822 192.991 103.211 193.8 104.213 C 193.835 104.415 193.891 104.534 193.423 104.445 C 193.383 104.237 193.311 104.173 193.311 104.173 C 193.311 104.173 192.183 103.498 191.841 103.026 C 191.484 102.545 191.429 101.707 191.597 101.395 Z M 220.474 172.402 C 220.474 172.402 223.085 142.438 176.007 135.528 C 170.04 134.649 162.5 133.979 154.865 133.961 C 117.13 134.457 115.757 90.44 144.189 88.216 C 155.968 87.244 170.04 93.607 183.801 100.007 C 183.747 101.715 183.816 103.236 184.937 104.638 C 186.056 106.039 190.37 107.567 191.747 108.358 C 193.123 109.148 197.536 111.956 200.241 115.473 C 200.827 114.377 205.722 111.189 205.722 111.189 C 205.722 111.189 204.548 111.218 201.82 110.196 C 199.092 109.176 195.86 106.087 195.776 105.908 C 195.698 105.734 195.65 105.456 196.287 105.324 C 196.771 104.916 195.675 103.59 195.19 103.106 C 194.704 102.624 191.466 97.114 191.39 96.986 C 191.313 96.856 191.286 96.732 191.058 96.578 C 190.345 96.348 187.209 96.912 187.209 96.912 C 187.209 96.912 182.384 94.54 180.721 89.431 C 180.744 90.329 179.895 91.305 180.721 93.361 C 178.205 92.293 176.043 90.48 174.34 85.992 C 173.327 88.549 174.34 90.169 174.34 90.169 C 174.34 90.169 168.418 88.514 167.472 83.05 C 166.431 85.505 167.472 86.979 167.472 86.979 C 167.472 86.979 157.816 81.942 141.77 81.867 C 131.027 80.883 128.786 61.984 129.783 58.803 C 129.783 58.803 114.286 50.636 83.79 47.027 C 53.288 43.421 28.275 46.486 28.275 46.486 C 28.275 46.486 82.297 43.895 125.571 61.415 C 127.041 67.994 131.468 78.947 133.851 84.218 C 127.032 88.935 119.337 93.369 118.143 109.097 C 116.944 124.824 130.467 138.656 147.234 139.083 C 163.152 139.931 174.16 140.052 187.486 146.963 C 200.217 154.002 210.65 175.441 211.683 194.729 C 212.798 180.423 207.43 149.65 182.372 140.309 C 217.394 146.438 220.474 172.402 220.474 172.402 Z M 125.694 66.927 L 124.431 62.861 C 124.431 62.861 103.638 59.173 75.684 61.158 C 47.726 63.143 19.5 72.928 19.5 72.928 C 19.5 72.928 77.258 58.397 125.694 66.927"/>
</svg>